<svg xmlns="http://www.w3.org/2000/svg" version="1.2" viewBox="0 0 12 17" width="12" height="17"><metadata><rdf:RDF xmlns:rdf="http://www.w3.org/1999/02/22-rdf-syntax-ns#" xmlns:dc="http://purl.org/dc/elements/1.1/"><rdf:Description><dc:creator>RealFaviconGenerator</dc:creator><dc:source>https://realfavicongenerator.net</dc:source></rdf:Description></rdf:RDF></metadata><style>
		.s0 { fill: #000000 } 
	</style><path class="s0" d="m0 17.45v-17.45h11.76v3.04h-8.07v4.16h7.47v3.04h-7.47v4.17h8.11v3.04zm18.38-13.09l2.4 4.58 2.46-4.58h3.73l-3.8 6.55 3.9 6.54h-3.71l-2.58-4.52-2.54 4.52h-3.75l3.89-6.54-3.75-6.55zm16.91 13.35q-2.01 0-3.46-0.85-1.44-0.87-2.22-2.39-0.76-1.53-0.76-3.51 0-2.01 0.77-3.53 0.79-1.53 2.23-2.38 1.44-0.86 3.42-0.86 1.72 0 3 0.62 1.29 0.62 2.04 1.75 0.75 1.12 0.83 2.64h-3.43q-0.14-0.98-0.77-1.57-0.61-0.61-1.61-0.61-0.84 0-1.47 0.46-0.62 0.45-0.97 1.32-0.35 0.87-0.35 2.11 0 1.25 0.34 2.13 0.35 0.87 0.98 1.34 0.63 0.46 1.47 0.46 0.62 0 1.12-0.26 0.5-0.26 0.83-0.74 0.33-0.5 0.43-1.19h3.43q-0.09 1.5-0.82 2.65-0.73 1.13-2 1.77-1.28 0.64-3.03 0.64zm12.52-17.71v17.45h-3.63v-17.45zm12.02 11.88v-7.52h3.63v13.09h-3.48v-2.38h-0.14q-0.44 1.15-1.47 1.85-1.02 0.7-2.5 0.7-1.31 0-2.31-0.59-1-0.6-1.56-1.7-0.55-1.1-0.56-2.63v-8.34h3.63v7.69q0.01 1.16 0.62 1.83 0.62 0.67 1.65 0.67 0.65 0 1.22-0.29 0.58-0.31 0.92-0.91 0.36-0.59 0.35-1.47zm18.15-3.79l-3.32 0.21q-0.09-0.43-0.37-0.77-0.28-0.35-0.74-0.55-0.45-0.22-1.08-0.22-0.85 0-1.43 0.36-0.58 0.35-0.58 0.94 0 0.47 0.38 0.79 0.37 0.33 1.29 0.52l2.37 0.48q1.9 0.39 2.84 1.26 0.94 0.87 0.94 2.28 0 1.29-0.76 2.26-0.75 0.97-2.06 1.52-1.31 0.54-3.01 0.54-2.6 0-4.14-1.08-1.54-1.1-1.8-2.97l3.57-0.19q0.16 0.79 0.78 1.21 0.63 0.41 1.6 0.41 0.95 0 1.53-0.37 0.59-0.37 0.6-0.96-0.01-0.49-0.42-0.81-0.41-0.32-1.26-0.49l-2.27-0.45q-1.91-0.39-2.85-1.33-0.93-0.95-0.93-2.42 0-1.26 0.68-2.17 0.69-0.91 1.94-1.41 1.25-0.49 2.93-0.49 2.48 0 3.9 1.05 1.43 1.05 1.67 2.85zm3.31 9.36v-13.09h3.63v13.09zm1.82-14.78q-0.81 0-1.39-0.53-0.57-0.55-0.57-1.31 0-0.75 0.57-1.28 0.58-0.55 1.39-0.55 0.81 0 1.38 0.55 0.58 0.53 0.58 1.28 0 0.76-0.58 1.31-0.57 0.53-1.38 0.53zm17.64 1.69l-4.58 13.09h-4.09l-4.57-13.09h3.83l2.72 9.37h0.14l2.71-9.37zm8.12 13.35q-2.02 0-3.48-0.82-1.45-0.83-2.23-2.34-0.79-1.51-0.79-3.58 0-2.02 0.79-3.55 0.78-1.53 2.21-2.38 1.43-0.85 3.35-0.85 1.3 0 2.42 0.42 1.12 0.41 1.96 1.23 0.84 0.83 1.31 2.08 0.47 1.25 0.47 2.92v1h-11.06v-2.25h7.64q0-0.79-0.34-1.39-0.34-0.61-0.95-0.95-0.59-0.35-1.39-0.35-0.82 0-1.46 0.38-0.63 0.38-0.99 1.02-0.36 0.63-0.37 1.4v2.14q0 0.98 0.36 1.68 0.37 0.71 1.03 1.09 0.67 0.39 1.58 0.39 0.6 0 1.11-0.17 0.5-0.17 0.86-0.51 0.36-0.35 0.54-0.84l3.36 0.22q-0.26 1.21-1.05 2.12-0.78 0.89-2.03 1.39-1.23 0.5-2.85 0.5z"></path></svg>